<svg width="43" height="61" viewBox="0 0 43 61" fill="none" xmlns="http://www.w3.org/2000/svg">
<g filter="url(#filter0_d)">
<path d="M26.4219 27.3438H16.5781V33.9062H26.4219V27.3438Z" fill="#C8C8C8"/>
<path d="M33.6636 19.157C31.3323 18.5735 29.7031 16.4877 29.7031 14.0842V8.75C29.7031 4.2268 26.0232 0.546875 21.5 0.546875C16.9768 0.546875 13.2969 4.2268 13.2969 8.75V14.0842C13.2969 16.4883 11.6677 18.5735 9.33642 19.157L8.58337 19.3452L9.38126 20.5417C10.0632 21.5649 10.9978 22.3666 12.1025 22.8829C12.1747 22.8545 12.2431 22.8195 12.3185 22.7959L18.7656 20.7812V18.4084C17.434 17.6378 16.4573 16.322 16.1412 14.7656H16.0313C14.8232 14.7656 13.8438 13.7862 13.8438 12.5781C13.8438 11.3701 14.8232 10.3906 16.0313 10.3906C16.0313 8.8993 16.6295 7.54906 17.5975 6.5625H17.5428C17.2831 6.27211 17.125 5.88875 17.125 5.46875C17.125 4.56258 17.8595 3.82812 18.7656 3.82812C19.2414 3.82812 19.6658 4.03375 19.9655 4.35695C20.1963 3.73023 20.7935 3.28125 21.5 3.28125C22.2066 3.28125 22.8038 3.73023 23.0345 4.35695C23.3342 4.03375 23.7586 3.82812 24.2344 3.82812C25.1406 3.82812 25.875 4.56258 25.875 5.46875C25.875 5.88875 25.717 6.27211 25.4572 6.5625H25.4025C26.3705 7.54906 26.9688 8.8993 26.9688 10.3906C28.1768 10.3906 29.1563 11.3701 29.1563 12.5781C29.1563 13.7862 28.1768 14.7656 26.9688 14.7656H26.8588C26.5427 16.322 25.566 17.6378 24.2344 18.4084V20.7812L30.682 22.7959C30.757 22.8195 30.8253 22.8545 30.8981 22.8829C32.0028 22.3666 32.9374 21.5649 33.6193 20.5417L34.4172 19.3452L33.6636 19.157Z" fill="#C8C8C8"/>
<path d="M33.5312 25.9279C33.5312 24.2441 32.4517 22.7757 30.845 22.2737L24.7812 20.3793V18.7075C25.9898 17.9173 26.8944 16.7043 27.2909 15.2802C28.6455 15.1184 29.7031 13.9754 29.7031 12.5781C29.7031 11.2492 28.7494 10.1413 27.4905 9.89625C27.3871 8.63188 26.8949 7.47633 26.1287 6.55375C26.3169 6.22508 26.4219 5.8532 26.4219 5.46875C26.4219 4.26234 25.4408 3.28125 24.2344 3.28125C23.8702 3.28125 23.5125 3.37477 23.1953 3.54812C22.7873 3.04445 22.1666 2.73438 21.5 2.73438C20.8334 2.73438 20.2127 3.04445 19.8047 3.54812C19.4875 3.37477 19.1298 3.28125 18.7656 3.28125C17.5592 3.28125 16.5781 4.26234 16.5781 5.46875C16.5781 5.8532 16.6831 6.22508 16.8712 6.55375C16.1051 7.47688 15.6129 8.63242 15.5095 9.89625C14.2506 10.1413 13.2969 11.2492 13.2969 12.5781C13.2969 13.9754 14.3545 15.1184 15.7091 15.2797C16.1051 16.7043 17.0102 17.9167 18.2188 18.707V20.3787L12.155 22.2737C10.5483 22.7757 9.46875 24.2446 9.46875 25.9279V30.0781H10.5625V34.4531H32.4375V30.0781H33.5312V25.9279ZM28.3496 27.3104C28.8702 27.831 29.1562 28.5223 29.1562 29.2578C29.1562 29.9934 28.8702 30.6846 28.3496 31.2052L27.5156 32.0392V33.3594H15.4844V32.0392L14.6504 31.2052C14.1298 30.6846 13.8438 29.9934 13.8438 29.2578C13.8438 28.5223 14.1298 27.831 14.6504 27.3104C15.188 26.7728 15.4844 26.0575 15.4844 25.2968V22.3792L16.5781 22.0374V26.25H26.4219V22.038L27.5156 22.3798V25.2973C27.5156 26.0575 27.812 26.7728 28.3496 27.3104ZM24.2344 8.20312V9.29688H23.1406V8.20312H22.0469V9.29688H20.9531V8.20312H19.8594V9.29688H18.7656V8.20312H17.6719V9.29688H16.705C17.2043 7.10828 19.1627 5.46875 21.5 5.46875C23.8373 5.46875 25.7957 7.10828 26.295 9.29688H25.3281V8.20312H24.2344ZM28.6094 12.5781C28.6094 13.2984 28.1396 13.9054 27.4927 14.1252C27.5041 13.9748 27.5156 13.825 27.5156 13.6719V11.0381C28.1505 11.2645 28.6094 11.8661 28.6094 12.5781ZM25.3281 5.46875C25.3281 5.5568 25.3139 5.6432 25.2931 5.72742C24.7517 5.28609 24.131 4.94156 23.4578 4.70914C23.6673 4.49477 23.9407 4.375 24.2344 4.375C24.8376 4.375 25.3281 4.86555 25.3281 5.46875ZM21.5 3.82812C21.92 3.82812 22.2946 4.08242 22.474 4.46141C22.1562 4.40891 21.8325 4.375 21.5 4.375C21.1675 4.375 20.8438 4.40891 20.526 4.46141C20.7054 4.08242 21.08 3.82812 21.5 3.82812ZM18.7656 4.375C19.0593 4.375 19.3327 4.49477 19.5416 4.70859C18.8684 4.94102 18.2477 5.28609 17.7063 5.72688C17.6861 5.64266 17.6719 5.5568 17.6719 5.46875C17.6719 4.86555 18.1624 4.375 18.7656 4.375ZM14.3906 12.5781C14.3906 11.8661 14.8495 11.2645 15.4844 11.0381V13.6719C15.4844 13.825 15.4959 13.9748 15.5073 14.1252C14.8604 13.9054 14.3906 13.2984 14.3906 12.5781ZM16.5781 13.6719V10.3906H26.4219V13.6719C26.4219 16.3855 24.2141 18.5938 21.5 18.5938C18.7859 18.5938 16.5781 16.3855 16.5781 13.6719ZM21.5 19.6875C22.2722 19.6875 23.0083 19.536 23.6875 19.2697V20.5548L21.5 22.7423L19.3125 20.5548V19.2697C19.9917 19.536 20.7278 19.6875 21.5 19.6875ZM18.613 21.402L21.5 24.2889L24.387 21.402L25.3281 21.6962V25.1562H17.6719V21.6962L18.613 21.402ZM10.5625 25.9279C10.5625 24.7253 11.3336 23.6764 12.4809 23.3182L14.3906 22.721V25.2968C14.3906 25.7649 14.208 26.2057 13.8771 26.5371C13.2154 27.1988 12.8282 28.0596 12.7637 28.9844H10.5625V25.9279ZM11.6562 30.0781H12.8397C12.9939 30.7923 13.3477 31.4491 13.8766 31.9785L14.3906 32.492V33.3594H11.6562V30.0781ZM31.3438 33.3594H28.6094V32.492L29.1229 31.9785C29.6523 31.4497 30.0055 30.7929 30.1598 30.0781H31.3438V33.3594ZM32.4375 28.9844H30.2369C30.1723 28.0596 29.7852 27.1988 29.1234 26.5371C28.792 26.2057 28.6094 25.7655 28.6094 25.2968V22.721L30.5191 23.3177C31.6664 23.6764 32.4375 24.7253 32.4375 25.9279V28.9844Z" fill="#C8C8C8"/>
<path d="M24.2344 12.5781C24.5364 12.5781 24.7812 12.3333 24.7812 12.0312C24.7812 11.7292 24.5364 11.4844 24.2344 11.4844C23.9323 11.4844 23.6875 11.7292 23.6875 12.0312C23.6875 12.3333 23.9323 12.5781 24.2344 12.5781Z" fill="#C8C8C8"/>
<path d="M18.7656 12.5781C19.0677 12.5781 19.3125 12.3333 19.3125 12.0312C19.3125 11.7292 19.0677 11.4844 18.7656 11.4844C18.4636 11.4844 18.2188 11.7292 18.2188 12.0312C18.2188 12.3333 18.4636 12.5781 18.7656 12.5781Z" fill="#C8C8C8"/>
<path d="M23.6875 14.7656H22.5938C22.5938 15.3688 22.1032 15.8594 21.5 15.8594C20.8968 15.8594 20.4062 15.3688 20.4062 14.7656H19.3125C19.3125 15.972 20.2936 16.9531 21.5 16.9531C22.7064 16.9531 23.6875 15.972 23.6875 14.7656Z" fill="#C8C8C8"/>
<path d="M23.1406 29.5312H16.5781V30.625H23.1406V29.5312Z" fill="#C8C8C8"/>
<path d="M26.4219 29.5312H24.2344V30.625H26.4219V29.5312Z" fill="#C8C8C8"/>
<path d="M9.312 52L11.782 43.004H13.966L16.436 52H15.448L14.798 49.686H10.95L10.3 52H9.312ZM12.536 43.862L11.171 48.789H14.577L13.212 43.862H12.536ZM18.6551 52H17.6801V42.666H18.6551V48.178L19.6691 48.126L21.5281 45.5H22.6331L20.5141 48.49L22.7241 52H21.6191L19.6821 48.984L18.6551 49.023V52ZM27.9568 45.5H28.9318V52H27.9568V51.545C27.3068 51.935 26.6655 52.13 26.0328 52.13C25.1488 52.13 24.5595 51.9003 24.2648 51.441C23.9788 50.9817 23.8358 50.1323 23.8358 48.893V45.5H24.8108V48.88C24.8108 49.8247 24.8932 50.4573 25.0578 50.778C25.2225 51.0987 25.5952 51.259 26.1758 51.259C26.4618 51.259 26.7522 51.22 27.0468 51.142C27.3415 51.0553 27.5668 50.973 27.7228 50.895L27.9568 50.778V45.5ZM31.7821 52H30.8071V45.5H31.7691V45.955C32.4711 45.565 33.1428 45.37 33.7841 45.37C34.6508 45.37 35.2314 45.604 35.5261 46.072C35.8294 46.54 35.9811 47.372 35.9811 48.568V52H35.0191V48.594C35.0191 47.6927 34.9281 47.0773 34.7461 46.748C34.5728 46.41 34.1958 46.241 33.6151 46.241C33.3378 46.241 33.0431 46.2843 32.7311 46.371C32.4278 46.449 32.1938 46.527 32.0291 46.605L31.7821 46.722V52Z" fill="#C8C8C8"/>
</g>
<defs>
<filter id="filter0_d" x="0" y="0" width="43" height="60.13" filterUnits="userSpaceOnUse" color-interpolation-filters="sRGB">
<feFlood flood-opacity="0" result="BackgroundImageFix"/>
<feColorMatrix in="SourceAlpha" type="matrix" values="0 0 0 0 0 0 0 0 0 0 0 0 0 0 0 0 0 0 127 0" result="hardAlpha"/>
<feOffset dy="4"/>
<feGaussianBlur stdDeviation="2"/>
<feComposite in2="hardAlpha" operator="out"/>
<feColorMatrix type="matrix" values="0 0 0 0 0 0 0 0 0 0 0 0 0 0 0 0 0 0 0.25 0"/>
<feBlend mode="normal" in2="BackgroundImageFix" result="effect1_dropShadow"/>
<feBlend mode="normal" in="SourceGraphic" in2="effect1_dropShadow" result="shape"/>
</filter>
</defs>
</svg>
