<svg width="47" height="60" viewBox="0 0 47 60" fill="none" xmlns="http://www.w3.org/2000/svg">
<path d="M43.0231 60H4.3159C2.11953 60 0.339172 58.3785 0.339172 56.3783V3.62168C0.339044 1.62152 2.11953 0 4.3159 0H43.0232C45.2196 0 47 1.62152 47 3.62168V56.3782C47 58.3785 45.2195 60 43.0231 60Z" fill="#F3EAE6"/>
<path d="M43.0221 0H42.4887C42.8273 0.532851 43.0221 1.1509 43.0221 1.8109V23.1418C43.0221 42.4979 25.7926 58.1892 4.53892 58.1892H0.871399C1.55904 59.2713 2.8431 60 4.31489 60H43.0222C45.2186 60 46.999 58.3785 46.999 56.3783V3.62168C46.999 1.62152 45.2185 0 43.0221 0V0Z" fill="#E1D3CE"/>
<path d="M43.0225 60L37.4368 58.1891L31.1042 60H4.31523C2.11886 60 0.338501 58.3785 0.338501 56.3783V51.5921H46.9994V56.3783C46.9993 58.3785 45.2188 60 43.0225 60Z" fill="#ACA6D6"/>
<path d="M46.9987 3.62227V56.3777C46.9987 58.3781 45.2191 60 43.0226 60H4.31434C2.84357 60 1.55939 59.2711 0.870972 58.1894H4.53952C12.9292 58.1894 20.6935 55.7437 27.0166 51.5918C36.711 45.2285 43.0226 34.8562 43.0226 23.1422V1.81055C43.0226 1.15078 42.827 0.533203 42.4886 0H43.0226C45.2191 0 46.9987 1.62187 46.9987 3.62227V3.62227Z" fill="#E1D3CE"/>
<path d="M46.9987 51.5918V56.3777C46.9987 58.3781 45.2191 60 43.0226 60L37.4368 58.1895L31.1033 60H4.31434C2.84357 60 1.55939 59.2711 0.870972 58.1895H4.53952C12.9292 58.1895 20.6935 55.7437 27.0166 51.5918H46.9987Z" fill="#978ECB"/>
<path d="M46.9989 10.8652H0.338013V3.62168C0.338013 1.62152 2.1185 0 4.31487 0H43.0222C45.2186 0 46.9989 1.62152 46.9989 3.62168V10.8652Z" fill="#ACA6D6"/>
<path d="M43.0221 0H42.4888C42.8273 0.532851 43.0221 1.1509 43.0221 1.8109V10.8653H46.9989V3.62168C46.999 1.62152 45.2185 0 43.0221 0V0Z" fill="#978ECB"/>
<path d="M4.31487 0C2.1185 0 0.338013 1.62152 0.338013 3.62168V10.8652H16.8888V0L4.31487 0Z" fill="#978ECB"/>
<path d="M43.0221 60H31.1039V56.059C31.1039 55.5922 31.5194 55.214 32.0318 55.214H42.0941C42.6066 55.214 43.022 55.5924 43.022 56.059V60H43.0221Z" fill="#FAF7F7"/>
<path d="M28.8191 6.51917V4.34604C28.8191 3.94596 29.1751 3.6217 29.6144 3.6217H42.2267C42.666 3.6217 43.0221 3.94596 43.0221 4.34604V6.51917C43.0221 6.91924 42.666 7.2435 42.2267 7.2435H29.6144C29.1753 7.2435 28.8191 6.91913 28.8191 6.51917V6.51917Z" fill="#FAF7F7"/>
<path d="M24.2558 6.71539C25.0322 6.0083 25.0322 4.86188 24.2558 4.15478C23.4794 3.44769 22.2206 3.44769 21.4441 4.15478C20.6677 4.86188 20.6677 6.0083 21.4441 6.71539C22.2206 7.42249 23.4794 7.42249 24.2558 6.71539Z" fill="#FAF7F7"/>
<path d="M12.9119 4.52718H4.31471C3.76565 4.52718 3.32056 4.12183 3.32056 3.62179C3.32056 3.12175 3.76565 2.7164 4.31471 2.7164H12.9119C13.461 2.7164 13.9061 3.12175 13.9061 3.62179C13.9061 4.12183 13.4611 4.52718 12.9119 4.52718Z" fill="#FAF7F7"/>
<path d="M12.9119 8.14886H4.31471C3.76565 8.14886 3.32056 7.7435 3.32056 7.24346C3.32056 6.74343 3.76565 6.33807 4.31471 6.33807H12.9119C13.461 6.33807 13.9061 6.74343 13.9061 7.24346C13.9061 7.7435 13.4611 8.14886 12.9119 8.14886Z" fill="#FAF7F7"/>
<path d="M23.6685 44.3775C31.6423 44.3775 38.1063 38.4906 38.1063 31.2287C38.1063 23.9668 31.6423 18.0799 23.6685 18.0799C15.6947 18.0799 9.23071 23.9668 9.23071 31.2287C9.23071 38.4906 15.6947 44.3775 23.6685 44.3775Z" fill="#B3DAFE"/>
<path d="M23.6686 40.7558C29.4461 40.7558 34.1297 36.4904 34.1297 31.2287C34.1297 25.967 29.4461 21.7016 23.6686 21.7016C17.8911 21.7016 13.2075 25.967 13.2075 31.2287C13.2075 36.4904 17.8911 40.7558 23.6686 40.7558Z" fill="#8AC9FE"/>
<path d="M20.8153 32.0164C20.5609 32.0164 20.3063 31.9281 20.1123 31.7512C19.724 31.3977 19.724 30.8244 20.1123 30.4707L23.8305 27.0844C24.2187 26.7308 24.8482 26.7308 25.2364 27.0844C25.6248 27.4379 25.6248 28.0113 25.2364 28.3649L21.5182 31.7512C21.324 31.928 21.0697 32.0164 20.8153 32.0164Z" fill="#D8ECFE"/>
<path d="M22.8036 35.6381C22.5492 35.6381 22.2947 35.5497 22.1006 35.3729C21.7123 35.0193 21.7123 34.4461 22.1006 34.0924L25.8189 30.706C26.2071 30.3525 26.8366 30.3525 27.2248 30.706C27.6131 31.0596 27.6131 31.633 27.2248 31.9865L23.5066 35.3729C23.3125 35.5497 23.058 35.6381 22.8036 35.6381Z" fill="#D8ECFE"/>
</svg>
